:SAMPLES-PER-SECOND 30
:FULLY-SPECIFIED
:DEGREES
839
root  34.6251 37.0359 -14.7824 118.38 79.7916 105.697
RightUpLeg  -41.9464 -10.6744 -0.00570896
RightLeg  33.834 1.30778 0.683013
RightFoot  -4.73913 0.546059 -10.0053
RightToes  9.54606e-009 0 -3.6325e-017
Spine  39.5592 -1.47815 24.5721
Spine1  3.39739 6.53614 2.89088
HEad  -41.5313 -21.7665 -4.94075
LeftShoulder1  0.100899 3.2262 -30.3593
LeftArm  -3.29501 19.6808 -44.9825
LeftForeArm  29.3737 -20.6164 -3.81927
LeftHand  -0.0608262 6.13048 -3.55475
RightShoulder  -0.517386 -4.97868 28.2368
RightArm  -6.8815 39.1936 40.6691
RightForeArm  3.85421 44.0301 10.5745
RightHand  -0.595386 9.01997 -5.17345
LeftUpLeg  -26.591 24.4211 -25.4438
LeftLeg  44.9537 -21.1739 -20.8422
LeftFoot  -4.51895 0.730695 -11.4856
LeftToes  -8.26734e-010 9.74065e-011 1.64617e-011
840
root  35.1022 37.0109 -15.1341 113.286 79.7624 101.061
RightUpLeg  -41.3436 -10.0283 -1.14751
RightLeg  35.3357 1.11518 0.580857
RightFoot  -6.01531 0.428191 -10.0154
RightToes  9.54606e-009 0 -3.6325e-017
Spine  39.4245 -1.67702 25.1635
Spine1  2.55408 6.04251 3.56384
HEad  -42.3815 -19.8698 -4.42307
LeftShoulder1  0.176287 3.01437 -29.9343
LeftArm  -2.20758 18.0613 -43.6951
LeftForeArm  28.9264 -25.7428 -3.89378
LeftHand  -0.0365368 5.57402 -1.9236
RightShoulder  -0.561334 -5.09243 28.5422
RightArm  -2.39658 39.4399 45.6573
RightForeArm  6.98757 45.0793 10.7623
RightHand  -0.671596 9.17827 -5.72858
LeftUpLeg  -27.6076 23.0239 -23.8365
LeftLeg  48.7799 -19.2196 -21.5202
LeftFoot  -2.74662 1.30691 -17.2516
LeftToes  -8.26734e-010 9.74065e-011 1.64617e-011
841
root  35.5625 37.0422 -15.4565 106.947 79.4921 95.8066
RightUpLeg  -39.8709 -9.53915 -2.56378
RightLeg  36.4266 1.29976 0.757625
RightFoot  -7.22094 0.286776 -9.31046
RightToes  9.54606e-009 0 -3.6325e-017
Spine  39.2309 -1.70145 25.1297
Spine1  3.17712 5.79852 4.32078
HEad  -43.1242 -19.1534 -4.6861
LeftShoulder1  0.00683952 3.48543 -30.3277
LeftArm  -4.1574 15.8788 -41.486
LeftForeArm  33.3605 -33.4315 -5.51192
LeftHand  -0.0276912 5.0578 0.251851
RightShoulder  -0.5341 -5.05082 27.7225
RightArm  0.741226 38.5012 49.3773
RightForeArm  9.97578 45.938 10.8876
RightHand  -0.691764 10.1601 -5.53789
LeftUpLeg  -28.7422 22.1898 -22.2349
LeftLeg  52.1929 -10.7595 -13.9648
LeftFoot  -1.2283 1.08378 -12.2246
LeftToes  -8.26734e-010 9.74065e-011 1.64617e-011
842
root  36.07 37.1288 -15.7357 102.085 79.0969 91.8486
RightUpLeg  -38.3361 -9.97936 -3.60586
RightLeg  37.0641 1.94934 1.30223
RightFoot  -8.10506 0.207624 -9.2745
RightToes  9.54606e-009 0 -3.6325e-017
Spine  38.8895 -1.64771 25.1794
Spine1  2.9704 5.93826 4.22743
HEad  -43.4855 -18.4423 -5.18674
LeftShoulder1  -0.0437776 3.62417 -30.2895
LeftArm  -7.64192 15.0493 -39.7221
LeftForeArm  37.0963 -43.0693 -7.99563
LeftHand  -0.0352677 4.4606 1.61431
RightShoulder  -0.527715 -5.01084 28.1922
RightArm  2.83523 36.8242 50.0757
RightForeArm  12.9118 46.1289 10.7518
RightHand  -0.532695 9.2098 -4.62301
LeftUpLeg  -30.0646 20.6892 -20.3145
LeftLeg  56.1327 -2.34502 -3.28303
LeftFoot  -0.949674 0.466828 -4.90681
LeftToes  -8.26734e-010 9.74065e-011 1.64617e-011
843
root  36.575 37.1937 -15.9765 99.0576 78.8068 90.1888
RightUpLeg  -36.2341 -9.95458 -4.65901
RightLeg  37.7297 1.87965 1.28151
RightFoot  -9.19724 0.113482 -9.30714
RightToes  9.54606e-009 0 -3.6325e-017
Spine  38.7973 -1.64365 25.0968
Spine1  2.43558 5.97365 4.26907
HEad  -43.117 -18.269 -6.00435
LeftShoulder1  -0.105716 3.796 -30.0504
LeftArm  -11.0759 14.8599 -38.6466
LeftForeArm  39.0914 -53.3623 -11.932
LeftHand  -0.050727 4.13648 2.85404
RightShoulder  -0.490041 -4.91008 27.9839
RightArm  4.20513 34.2065 50.1506
RightForeArm  13.0033 45.4947 10.499
RightHand  -0.599609 9.05065 -5.19601
LeftUpLeg  -30.8545 18.0858 -17.9217
LeftLeg  59.8518 1.79523 3.83022
LeftFoot  -2.81474 -0.0213403 0.426346
LeftToes  -8.26734e-010 9.74065e-011 1.64617e-011
844
root  37.0563 37.1642 -16.184 99.7408 78.8334 91.9717
RightUpLeg  -34.7742 -10.0657 -5.45755
RightLeg  38.9974 1.97016 1.42328
RightFoot  -10.2894 0.0109086 -8.80223
RightToes  9.54606e-009 0 -3.6325e-017
Spine  38.0212 -1.60104 25.0639
Spine1  1.89423 5.80147 4.4525
HEad  -43.0849 -17.6626 -6.71487
LeftShoulder1  -0.136488 3.8838 -29.7878
LeftArm  -13.7362 14.7146 -38.0609
LeftForeArm  41.7495 -63.4145 -18.5008
LeftHand  -0.0763844 3.40752 3.55098
RightShoulder  -0.514015 -4.97327 28.1442
RightArm  4.98437 31.7443 49.0364
RightForeArm  12.1992 43.8478 9.9348
RightHand  -0.598213 9.2015 -5.13591
LeftUpLeg  -31.8077 13.7744 -15.4124
LeftLeg  61.1967 2.15992 4.85062
LeftFoot  -3.34014 -0.352971 5.26689
LeftToes  -8.26734e-010 9.74065e-011 1.64617e-011
845
root  37.608 37.1909 -16.3856 97.1368 78.3668 91.1377
RightUpLeg  -32.1292 -9.67308 -6.84118
RightLeg  39.6975 1.77027 1.28505
RightFoot  -11.6934 -0.104579 -8.63802
RightToes  9.54606e-009 0 -3.6325e-017
Spine  37.6896 -1.3923 24.2965
Spine1  1.73563 5.73928 4.44294
HEad  -42.9729 -16.934 -7.50551
LeftShoulder1  -0.168246 3.97113 -29.8345
LeftArm  -14.9408 14.0289 -37.6058
LeftForeArm  51.5471 -72.6514 -31.2344
LeftHand  -0.0886359 3.32696 4.16059
RightShoulder  -0.498996 -4.93759 27.9534
RightArm  4.4216 28.7477 47.2863
RightForeArm  10.2341 41.7251 9.32442
RightHand  -0.700612 9.75079 -5.75406
LeftUpLeg  -30.8877 9.7513 -13.3576
LeftLeg  58.4065 0.432248 1.34175
LeftFoot  -5.03422 -0.137747 3.03305
LeftToes  -8.26734e-010 9.74065e-011 1.64617e-011
846
root  38.1709 37.2343 -16.5695 95.3602 78.2109 90.8296
RightUpLeg  -29.7514 -8.76834 -7.90698
RightLeg  40.3194 1.36405 0.947052
RightFoot  -12.8146 -0.187865 -7.85187
RightToes  9.54606e-009 0 -3.6325e-017
Spine  36.9859 -1.002 23.5646
Spine1  1.74723 5.72244 4.62976
HEad  -41.6626 -17.8776 -8.02629
LeftShoulder1  -0.204028 4.06412 -30.2796
LeftArm  -15.2838 13.4585 -37.4162
LeftForeArm  83.0578 -79.6562 -62.6544
LeftHand  -0.0755062 3.6803 3.99204
RightShoulder  -0.521311 -4.9998 28.0241
RightArm  4.06208 26.278 44.5728
RightForeArm  6.91763 38.5176 8.49947
RightHand  -0.725605 9.79841 -5.90998
LeftUpLeg  -29.7325 6.19314 -11.6706
LeftLeg  52.4832 -0.923969 -0.83781
LeftFoot  -6.34035 0.00814852 0.694465
LeftToes  -8.26734e-010 9.74065e-011 1.64617e-011
847
root  38.7645 37.2492 -16.7389 95.7079 78.2552 92.2312
RightUpLeg  -27.7953 -8.50924 -8.509
RightLeg  40.9807 1.02871 0.661463
RightFoot  -13.9269 -0.262933 -7.46804
RightToes  9.54606e-009 0 -3.6325e-017
Spine  35.4396 -1.01227 23.319
Spine1  1.7504 5.45435 3.66269
HEad  -39.7727 -18.4156 -8.62019
LeftShoulder1  -0.171065 3.98005 -29.7889
LeftArm  -15.2629 14.3997 -38.0376
LeftForeArm  139.856 -79.8375 -117.556
LeftHand  -0.0895022 3.06489 3.79881
RightShoulder  -0.535581 -5.03226 28.2273
RightArm  2.9863 23.4514 42.4084
RightForeArm  5.14005 34.523 7.44319
RightHand  -0.527169 8.74888 -4.70979
LeftUpLeg  -28.2254 3.01666 -10.2918
LeftLeg  43.9348 -1.48652 -1.17142
LeftFoot  -7.35108 0.0800696 -1.00864
LeftToes  -8.26734e-010 9.74065e-011 1.64617e-011
848
root  39.435 37.2754 -16.8474 94.8569 78.3871 92.996
RightUpLeg  -24.8373 -7.99485 -8.98803
RightLeg  41.1723 0.705638 0.366181
RightFoot  -15.2189 -0.345233 -7.16173
RightToes  9.54606e-009 0 -3.6325e-017
Spine  34.042 -0.868977 22.4503
Spine1  2.01392 5.2677 2.81048
HEad  -39.1978 -18.1953 -8.79211
LeftShoulder1  -0.167013 3.96776 -29.8452
LeftArm  -14.2261 15.1776 -38.1009
LeftForeArm  167.301 -74.9525 -144.122
LeftHand  -0.10381 2.23903 3.40455
RightShoulder  -0.590725 -5.18382 28.4048
RightArm  2.63383 20.5395 40.1988
RightForeArm  0.938617 29.9825 6.48196
RightHand  -0.550407 8.45834 -4.98685
LeftUpLeg  -25.1849 0.844556 -9.31204
LeftLeg  33.8369 -2.11237 -1.11169
LeftFoot  -7.96589 0.109473 -1.87949
LeftToes  -8.26734e-010 9.74065e-011 1.64617e-011
